<svg width="24" height="24" viewBox="0 0 24 24" fill="none" xmlns="http://www.w3.org/2000/svg">
<path d="M18.8024 3.33809C18.6175 3.05504 18.3475 3.04691 18.0398 3.03765C18.0049 3.0366 17.9696 3.03553 17.9338 3.03405C17.9066 3.0328 17.8765 3.03328 17.8451 3.03379C17.7204 3.03579 17.5744 3.03813 17.5008 2.93328C17.4156 2.81172 17.4237 2.5768 17.4304 2.38286C17.4325 2.32157 17.4344 2.26435 17.4333 2.21612C17.4213 1.7656 17.3963 1.28703 17.2224 1.12705C17.0912 1.00702 16.6989 1.02364 16.3371 1.03898C16.2198 1.04395 16.1057 1.04879 16.0048 1.04879H8.30331C8.14825 1.04879 7.98571 1.03616 7.826 1.02376C7.5148 0.999582 7.21438 0.976244 7.00104 1.04879C6.69142 1.15458 6.67045 1.71052 6.65071 2.23401L6.64965 2.26218C6.63307 2.69434 6.52597 3.02782 6.17102 2.99423C5.75817 2.95579 5.34737 2.94367 5.16071 3.31731C4.94027 3.7594 4.98573 4.22216 5.06717 5.05104C5.0788 5.16944 5.09116 5.29532 5.10359 5.42967H18.9214C18.9293 5.33147 18.9377 5.23453 18.946 5.13916C19.0107 4.39342 19.0671 3.74367 18.8024 3.33809Z" fill="#8047F8"/>
<path fill-rule="evenodd" clip-rule="evenodd" d="M6.17969 6.25175C6.39549 9.17254 6.60895 12.0967 6.8224 15.0208L6.82253 15.0226C6.93843 16.6104 7.05433 18.1981 7.17061 19.7853H7.6115C7.64155 20.0338 7.67592 20.3405 7.71217 20.6639C7.78574 21.3204 7.86702 22.0456 7.93535 22.4912H7.98411C8.4332 22.3269 11.5378 20.9999 11.5392 15.7167C11.5386 15.7016 11.5391 15.6866 11.5407 15.6716H10.7737C10.7365 15.6713 10.7005 15.6589 10.6712 15.6363C10.6419 15.6138 10.6209 15.5824 10.6114 15.5469C10.5367 15.3622 10.4764 15.1722 10.4312 14.9784C9.97995 15.2333 9.62162 15.6224 9.40727 16.0904C9.20379 15.6111 9.17716 15.0764 9.33202 14.5796C9.48689 14.0829 9.8134 13.6558 10.2545 13.3728C10.2602 11.8312 10.8374 10.3451 11.8769 9.19584L11.8931 9.18159C11.9233 9.15546 11.962 9.14093 12.0021 9.14061C12.0253 9.1408 12.0482 9.14576 12.0694 9.15516C12.0908 9.16467 12.11 9.17854 12.1257 9.19584C13.1773 10.3467 13.7514 11.8471 13.7336 13.3978C14.183 13.6728 14.5161 14.0997 14.6713 14.5991C14.8264 15.0985 14.793 15.6366 14.5772 16.1136C14.364 15.6448 14.0054 15.2554 13.5533 15.0016C13.5257 15.1894 13.4749 15.3731 13.4019 15.5487C13.3767 15.6235 13.3262 15.6716 13.2757 15.6716H12.4578C12.4591 15.6806 12.46 15.6896 12.4605 15.6986L12.4608 15.7007V15.7051C12.4611 15.7128 12.4611 15.7206 12.4608 15.7284C12.472 21.1633 15.7729 22.3969 16.0511 22.4912H16.1463C16.1706 22.0632 16.2497 21.4725 16.3268 20.8966C16.3799 20.4998 16.4321 20.11 16.4648 19.7853H16.9108C17.0535 17.7861 17.2003 15.7924 17.3472 13.7986L17.3472 13.7976L17.3473 13.797C17.5351 11.2468 17.7229 8.69652 17.9022 6.13436H6.20825C6.17459 6.14094 6.17688 6.196 6.17969 6.25175ZM12.0021 9.14061L12.0013 9.1406H12.0031L12.0021 9.14061Z" fill="#8047F8"/>
</svg>
