<svg width="4875" height="705" viewBox="0 0 4875 705" fill="none" xmlns="http://www.w3.org/2000/svg">
<g filter="url(#filter0_f_9141_571)">
<path opacity="0.15" d="M3101.13 307.88C3134.64 344.97 3161.82 409.451 3111.73 454.973C3106.57 459.666 3058.11 502.248 2985.24 496.96C2896.48 490.52 2878.28 420.812 2780.32 402.716C2674.23 383.119 2611.97 449.425 2560.17 429.056C2498.91 404.97 2491.39 275.071 2602.27 219.396C2735.84 152.326 3011.02 208.151 3101.13 307.88Z" fill="#EBC136"/>
<path opacity="0.15" d="M2266.18 499.639C2297.24 480.569 2331.09 442.149 2310.07 403.285C2307.9 399.279 2287.2 362.654 2238.62 353.834C2179.44 343.09 2150.1 386.52 2082.03 381.996C2008.31 377.096 1984.62 322.301 1945.91 327.114C1900.13 332.806 1862.56 418.21 1920.45 474.149C1990.18 541.538 2182.66 550.917 2266.18 499.639Z" fill="#EBC136"/>
<path opacity="0.15" d="M2448.51 391.89C2433.12 370.799 2417.4 330.221 2430.88 292.859C2432.27 289.007 2445.45 253.857 2471.81 248.298C2503.92 241.526 2516.95 286.799 2553.42 286.823C2592.91 286.849 2608.75 233.774 2629.06 241.155C2653.07 249.883 2667.98 337.571 2633.88 389.508C2592.8 452.075 2489.89 448.602 2448.51 391.89Z" fill="#EBC136"/>
<path opacity="0.15" d="M2436.4 344.802C2453.22 334.124 2471.56 312.633 2460.21 290.936C2459.04 288.699 2447.87 268.254 2421.59 263.363C2389.59 257.407 2373.68 281.693 2336.86 279.218C2296.98 276.538 2284.21 245.943 2263.26 248.661C2238.49 251.876 2218.11 299.62 2249.38 330.828C2287.06 368.423 2391.18 373.514 2436.4 344.802Z" fill="#EBC136"/>
<path opacity="0.15" d="M3160.56 318.365C3178.7 302.046 3198.64 269.494 3186.88 237.192C3185.67 233.861 3174.08 203.43 3146.1 196.595C3112.03 188.269 3094.64 224.965 3055.36 221.946C3012.82 218.678 2999.69 173.066 2977.28 177.534C2950.77 182.818 2928.21 254.751 2961.09 300.934C3000.7 356.569 3111.79 362.244 3160.56 318.365Z" fill="#8047F8"/>
<path opacity="0.15" d="M3172.54 447.852C3186.64 458.804 3202.09 480.725 3192.77 502.622C3191.81 504.88 3182.63 525.511 3160.75 530.261C3134.1 536.047 3120.67 511.312 3089.97 513.533C3056.73 515.938 3046.28 546.841 3028.79 543.922C3008.11 540.47 2990.78 491.932 3016.65 460.552C3047.82 422.749 3134.63 418.404 3172.54 447.852Z" fill="#8047F8"/>
<path opacity="0.15" d="M1973.87 206.891C1986.44 228.616 1998.87 270.056 1986.63 307.491C1985.37 311.351 1973.44 346.558 1950.99 351.502C1923.65 357.524 1913.61 311.405 1882.73 310.442C1849.28 309.4 1834.7 362.665 1817.67 354.678C1797.53 345.234 1786.82 256.175 1816.84 204.53C1853 142.315 1940.07 148.476 1973.87 206.891Z" fill="#EBC136"/>
<path opacity="0.15" d="M2615.44 502.947C2589.56 483.727 2564.4 445.18 2590.86 406.528C2593.59 402.543 2619.37 366.123 2666.54 357.62C2723.98 347.262 2744.05 390.78 2808.78 386.683C2878.88 382.246 2910.6 327.712 2946.14 332.753C2988.17 338.713 3008.7 424.166 2944.65 479.631C2867.49 546.449 2685.05 554.627 2615.44 502.947Z" fill="#EBC136"/>
<path opacity="0.15" d="M2541.86 469.538C2563.5 450.513 2586.19 413.904 2568.9 380.187C2567.12 376.71 2550.18 344.989 2514.37 339.962C2470.74 333.84 2451.59 374.687 2401.8 374.695C2347.89 374.704 2327.86 326.807 2299.91 333.46C2266.88 341.327 2243.88 420.444 2288.87 467.321C2343.07 523.792 2483.66 520.695 2541.86 469.538Z" fill="#8047F8"/>
<path opacity="0.15" d="M2589.41 211.004C2629.96 221.665 2673.01 241.464 2642.27 258.257C2639.1 259.989 2608.93 275.762 2543.05 277.009C2462.8 278.528 2426.12 256.67 2334.31 254.784C2234.88 252.742 2199.54 276.767 2147.79 272.269C2086.6 266.95 2041.54 225.145 2122.94 202.591C2220.99 175.42 2480.38 182.335 2589.41 211.004Z" fill="#8047F8"/>
<path opacity="0.15" d="M1922.07 452.866C1941.16 430.714 1961.29 388.381 1946.39 349.978C1944.85 346.018 1930.25 309.899 1898.92 304.685C1860.76 298.335 1843.7 345.474 1800.1 346.25C1752.88 347.089 1735.68 292.467 1711.16 300.526C1682.18 310.056 1661.48 401.145 1700.54 454.214C1747.61 518.144 1870.75 512.431 1922.07 452.866Z" fill="#8047F8"/>
<path opacity="0.15" d="M1582.13 307.88C1615.64 344.97 1642.82 409.451 1592.73 454.973C1587.57 459.666 1539.11 502.248 1466.24 496.96C1377.48 490.52 1359.28 420.812 1261.32 402.716C1155.23 383.119 1092.97 449.425 1041.17 429.056C979.907 404.97 972.387 275.071 1083.27 219.396C1216.84 152.326 1492.02 208.151 1582.13 307.88Z" fill="#EBC136"/>
<path opacity="0.15" d="M747.181 499.639C778.243 480.569 812.091 442.149 791.07 403.285C788.902 399.279 768.198 362.654 719.615 353.834C660.441 343.09 631.098 386.52 563.027 381.996C489.311 377.096 465.624 322.301 426.907 327.114C381.125 332.806 343.563 418.21 401.449 474.149C471.184 541.538 663.659 550.917 747.181 499.639Z" fill="#EBC136"/>
<path opacity="0.15" d="M929.511 391.89C914.123 370.799 898.4 330.221 911.883 292.859C913.273 289.007 926.454 253.857 952.813 248.298C984.919 241.526 997.949 286.799 1034.42 286.823C1073.91 286.849 1089.75 233.774 1110.06 241.155C1134.07 249.883 1148.98 337.571 1114.88 389.508C1073.8 452.075 970.888 448.602 929.511 391.89Z" fill="#EBC136"/>
<path opacity="0.15" d="M917.403 344.802C934.22 334.124 952.558 312.633 941.212 290.936C940.043 288.699 928.867 268.254 902.59 263.363C870.585 257.407 854.681 281.693 817.859 279.218C777.982 276.538 765.206 245.943 744.257 248.661C719.486 251.876 699.106 299.62 730.384 330.828C768.063 368.423 872.183 373.514 917.403 344.802Z" fill="#EBC136"/>
<path opacity="0.15" d="M1641.56 318.365C1659.7 302.046 1679.64 269.494 1667.88 237.192C1666.67 233.861 1655.08 203.43 1627.1 196.595C1593.03 188.269 1575.64 224.965 1536.36 221.946C1493.82 218.678 1480.69 173.066 1458.28 177.534C1431.77 182.818 1409.21 254.751 1442.09 300.934C1481.7 356.569 1592.79 362.244 1641.56 318.365Z" fill="#8047F8"/>
<path opacity="0.15" d="M1653.54 447.852C1667.64 458.804 1683.09 480.725 1673.77 502.622C1672.81 504.88 1663.63 525.511 1641.75 530.261C1615.1 536.047 1601.67 511.312 1570.97 513.533C1537.73 515.938 1527.28 546.841 1509.79 543.922C1489.11 540.47 1471.78 491.932 1497.65 460.552C1528.82 422.749 1615.63 418.404 1653.54 447.852Z" fill="#8047F8"/>
<path opacity="0.15" d="M454.873 206.891C467.442 228.616 479.868 270.056 467.631 307.491C466.369 311.351 454.435 346.558 431.991 351.502C404.653 357.524 394.611 311.405 363.728 310.442C330.283 309.4 315.701 362.665 298.668 354.678C278.526 345.234 267.819 256.175 297.835 204.53C333.996 142.315 421.074 148.476 454.873 206.891Z" fill="#EBC136"/>
<path opacity="0.15" d="M1096.44 502.947C1070.56 483.727 1045.4 445.18 1071.86 406.528C1074.59 402.543 1100.37 366.123 1147.54 357.62C1204.98 347.262 1225.05 390.78 1289.78 386.683C1359.88 382.246 1391.6 327.712 1427.14 332.753C1469.17 338.713 1489.7 424.166 1425.65 479.631C1348.49 546.449 1166.05 554.627 1096.44 502.947Z" fill="#EBC136"/>
<path opacity="0.15" d="M1022.86 469.538C1044.5 450.513 1067.19 413.904 1049.9 380.187C1048.12 376.71 1031.18 344.989 995.366 339.962C951.74 333.84 932.59 374.687 882.804 374.695C828.889 374.704 808.856 326.807 780.915 333.46C747.875 341.327 724.878 420.444 769.867 467.321C824.065 523.792 964.664 520.695 1022.86 469.538Z" fill="#8047F8"/>
<path opacity="0.15" d="M1070.41 211.004C1110.96 221.665 1154.01 241.464 1123.27 258.257C1120.1 259.989 1089.93 275.762 1024.05 277.009C943.799 278.528 907.117 256.67 815.305 254.784C715.878 252.742 680.537 276.767 628.788 272.269C567.595 266.95 522.538 225.145 603.936 202.591C701.994 175.42 961.379 182.335 1070.41 211.004Z" fill="#8047F8"/>
<path opacity="0.15" d="M403.074 452.866C422.161 430.714 442.286 388.381 427.39 349.978C425.854 346.018 411.246 309.899 379.916 304.685C341.756 298.335 324.697 345.474 281.099 346.25C233.885 347.089 216.68 292.467 192.165 300.526C163.176 310.056 142.478 401.145 181.544 454.214C228.607 518.144 351.752 512.431 403.074 452.866Z" fill="#8047F8"/>
<path opacity="0.15" d="M4620.13 307.88C4653.64 344.97 4680.82 409.451 4630.73 454.973C4625.57 459.666 4577.11 502.248 4504.24 496.96C4415.48 490.52 4397.28 420.812 4299.32 402.716C4193.23 383.119 4130.97 449.425 4079.17 429.056C4017.91 404.97 4010.39 275.071 4121.27 219.396C4254.84 152.326 4530.02 208.151 4620.13 307.88Z" fill="#EBC136"/>
<path opacity="0.15" d="M3785.18 499.639C3816.24 480.569 3850.09 442.149 3829.07 403.285C3826.9 399.279 3806.2 362.654 3757.62 353.834C3698.44 343.09 3669.1 386.52 3601.03 381.996C3527.31 377.096 3503.62 322.301 3464.91 327.114C3419.13 332.806 3381.56 418.21 3439.45 474.149C3509.18 541.538 3701.66 550.917 3785.18 499.639Z" fill="#EBC136"/>
<path opacity="0.15" d="M3967.51 391.89C3952.12 370.799 3936.4 330.221 3949.88 292.859C3951.27 289.007 3964.45 253.857 3990.81 248.298C4022.92 241.526 4035.95 286.799 4072.42 286.823C4111.91 286.849 4127.75 233.774 4148.06 241.155C4172.07 249.883 4186.98 337.571 4152.88 389.508C4111.8 452.075 4008.89 448.602 3967.51 391.89Z" fill="#EBC136"/>
<path opacity="0.15" d="M3955.4 344.802C3972.22 334.124 3990.56 312.633 3979.21 290.936C3978.04 288.699 3966.87 268.254 3940.59 263.363C3908.59 257.407 3892.68 281.693 3855.86 279.218C3815.98 276.538 3803.21 245.943 3782.26 248.661C3757.49 251.876 3737.11 299.62 3768.38 330.828C3806.06 368.423 3910.18 373.514 3955.4 344.802Z" fill="#EBC136"/>
<path opacity="0.15" d="M4679.56 318.365C4697.7 302.046 4717.64 269.494 4705.88 237.192C4704.67 233.861 4693.08 203.43 4665.1 196.595C4631.03 188.269 4613.64 224.965 4574.36 221.946C4531.82 218.678 4518.69 173.066 4496.28 177.534C4469.77 182.818 4447.21 254.751 4480.09 300.934C4519.7 356.569 4630.79 362.244 4679.56 318.365Z" fill="#8047F8"/>
<path opacity="0.15" d="M4691.54 447.852C4705.64 458.804 4721.09 480.725 4711.77 502.622C4710.81 504.88 4701.63 525.511 4679.75 530.261C4653.1 536.047 4639.67 511.312 4608.97 513.533C4575.73 515.938 4565.28 546.841 4547.79 543.922C4527.11 540.47 4509.78 491.932 4535.65 460.552C4566.82 422.749 4653.63 418.404 4691.54 447.852Z" fill="#8047F8"/>
<path opacity="0.15" d="M3492.87 206.891C3505.44 228.616 3517.87 270.056 3505.63 307.491C3504.37 311.351 3492.44 346.558 3469.99 351.502C3442.65 357.524 3432.61 311.405 3401.73 310.442C3368.28 309.4 3353.7 362.665 3336.67 354.678C3316.53 345.234 3305.82 256.175 3335.84 204.53C3372 142.315 3459.07 148.476 3492.87 206.891Z" fill="#EBC136"/>
<path opacity="0.15" d="M4134.44 502.947C4108.56 483.727 4083.4 445.18 4109.86 406.528C4112.59 402.543 4138.37 366.123 4185.54 357.62C4242.98 347.262 4263.05 390.78 4327.78 386.683C4397.88 382.246 4429.6 327.712 4465.14 332.753C4507.17 338.713 4527.7 424.166 4463.65 479.631C4386.49 546.449 4204.05 554.627 4134.44 502.947Z" fill="#EBC136"/>
<path opacity="0.15" d="M4060.86 469.538C4082.5 450.513 4105.19 413.904 4087.9 380.187C4086.12 376.71 4069.18 344.989 4033.37 339.962C3989.74 333.84 3970.59 374.687 3920.8 374.695C3866.89 374.704 3846.86 326.807 3818.91 333.46C3785.88 341.327 3762.88 420.444 3807.87 467.321C3862.07 523.792 4002.66 520.695 4060.86 469.538Z" fill="#8047F8"/>
<path opacity="0.15" d="M4108.41 211.004C4148.96 221.665 4192.01 241.464 4161.27 258.257C4158.1 259.989 4127.93 275.762 4062.05 277.009C3981.8 278.528 3945.12 256.67 3853.31 254.784C3753.88 252.742 3718.54 276.767 3666.79 272.269C3605.6 266.95 3560.54 225.145 3641.94 202.591C3739.99 175.42 3999.38 182.335 4108.41 211.004Z" fill="#8047F8"/>
<path opacity="0.15" d="M3441.07 452.866C3460.16 430.714 3480.29 388.381 3465.39 349.978C3463.85 346.018 3449.25 309.899 3417.92 304.685C3379.76 298.335 3362.7 345.474 3319.1 346.25C3271.88 347.089 3254.68 292.467 3230.16 300.526C3201.18 310.056 3180.48 401.145 3219.54 454.214C3266.61 518.144 3389.75 512.431 3441.07 452.866Z" fill="#8047F8"/>
</g>
<defs>
<filter id="filter0_f_9141_571" x="-22" y="-89" width="4920" height="864" filterUnits="userSpaceOnUse" color-interpolation-filters="sRGB">
<feFlood flood-opacity="0" result="BackgroundImageFix"/>
<feBlend mode="normal" in="SourceGraphic" in2="BackgroundImageFix" result="shape"/>
<feGaussianBlur stdDeviation="80" result="effect1_foregroundBlur_9141_571"/>
</filter>
</defs>
</svg>
